<?xml version="1.0" standalone="no"?>
<!DOCTYPE svg PUBLIC "-//W3C//DTD SVG 20010904//EN"
 "http://www.w3.org/TR/2001/REC-SVG-20010904/DTD/svg10.dtd">
<svg version="1.0" xmlns="http://www.w3.org/2000/svg"
 width="1000.000000pt" height="1084.000000pt" viewBox="0 0 1000.000000 1084.000000"
 preserveAspectRatio="xMidYMid meet">

<g transform="translate(0.000000,1084.000000) scale(0.100000,-0.100000)"
fill="#000000" stroke="none">
<path d="M3114 9206 c-881 -512 -1611 -938 -1622 -946 -20 -15 -20 -16 -26
-2230 l-7 -2215 1691 -975 c930 -536 1695 -974 1700 -973 5 2 739 427 1630
945 l1620 942 0 516 0 517 -110 63 c-61 34 -113 66 -115 71 -3 4 45 37 107 73
l112 65 -3 1578 c-2 1190 -5 1581 -14 1589 -7 6 -486 286 -1065 623 l-1053
611 -129 -75 c-71 -41 -131 -75 -135 -75 -3 0 -5 62 -4 137 l2 138 -479 277
c-263 153 -483 277 -489 277 -5 -1 -731 -420 -1611 -933z m2089 569 c202 -115
366 -212 366 -215 1 -5 -3015 -1760 -3096 -1803 l-34 -18 -420 242 c-234 135
-416 246 -411 251 5 5 708 415 1563 913 l1554 903 56 -31 c31 -18 221 -126
422 -242z m407 -407 l-1 -113 -390 -224 c-214 -123 -394 -231 -398 -240 -5 -9
-50 -233 -102 -498 -52 -266 -98 -483 -103 -483 -5 0 -167 92 -360 204 -193
113 -363 210 -377 216 -25 12 -61 -7 -598 -316 l-570 -329 -3 -1544 -3 -1545
-115 -67 c-63 -37 -116 -66 -118 -64 -2 1 0 745 4 1653 l7 1650 1556 905 c856
498 1559 906 1564 906 4 1 7 -50 7 -111z m1353 -585 c539 -313 978 -574 978
-579 -1 -5 -221 -136 -490 -291 l-489 -283 -984 571 c-540 314 -988 577 -995
583 -9 8 107 80 475 293 302 175 495 281 507 279 11 -2 460 -260 998 -573z
m-1048 -638 c528 -307 965 -562 972 -569 8 -8 -42 -284 -210 -1138 -122 -619
-224 -1129 -227 -1132 -3 -2 -113 380 -245 851 -132 470 -242 858 -245 862 -3
4 -286 170 -630 370 -344 200 -627 365 -629 367 -3 3 173 922 185 967 5 17 7
17 37 -2 18 -10 464 -270 992 -576z m-1635 -243 c1033 -597 1599 -926 1597
-928 -1 -1 -236 -131 -521 -288 -307 -170 -525 -285 -534 -281 -29 11 -1982
1149 -1982 1154 1 8 1012 591 1019 587 3 -2 193 -111 421 -244z m3730 -1280
l0 -1519 -301 -174 c-166 -96 -306 -175 -310 -177 -5 -2 -9 500 -9 1131 l0
1134 -37 6 c-43 7 -53 3 -53 -24 0 -24 -596 -2649 -603 -2654 -18 -15 -496
-285 -503 -285 -5 0 -157 489 -339 1086 l-330 1085 -3 -188 c-1 -103 -6 -683
-10 -1287 l-7 -1100 -305 -176 -305 -176 -7 1000 c-4 551 -7 1232 -5 1515 l2
514 510 282 c281 155 513 279 516 276 3 -3 117 -404 253 -891 136 -487 249
-891 251 -897 3 -8 21 -13 42 -13 l38 0 241 1227 240 1227 515 298 c282 164
515 298 517 298 1 0 2 -683 2 -1518z m-703 -1869 c-3 -2 -359 200 -376 213 -3
3 332 1498 362 1614 10 35 13 -155 15 -889 1 -514 1 -936 -1 -938z m-1457 132
c132 -434 239 -792 238 -795 -2 -4 -112 57 -245 134 l-243 141 1 665 c0 366 2
661 5 655 2 -5 112 -365 244 -800z m1284 -131 l216 -126 209 121 c115 67 214
121 221 121 13 0 188 -98 194 -109 6 -9 -3105 -1816 -3124 -1815 -17 0 -2324
1331 -2328 1342 -2 7 189 122 203 122 3 0 479 -275 1057 -612 579 -336 1057
-611 1063 -611 11 0 723 409 740 425 6 5 12 137 15 333 l5 324 275 -160 c161
-93 282 -158 292 -155 20 5 577 324 595 340 6 6 37 124 68 261 63 279 74 325
80 325 2 0 101 -57 219 -126z m884 -515 l-3 -441 -890 -517 c-489 -285 -1193
-693 -1562 -908 l-673 -391 0 442 0 441 1558 907 c856 498 1560 907 1565 907
4 1 6 -197 5 -440z"/>
<path d="M3890 1517 c-159 -36 -266 -153 -289 -317 -25 -179 51 -341 193 -410
181 -89 398 -40 499 113 113 170 80 428 -70 542 -88 67 -224 96 -333 72z m173
-118 c48 -13 112 -70 139 -123 33 -63 36 -184 8 -258 -40 -107 -138 -166 -259
-155 -91 8 -157 53 -197 134 -23 48 -31 180 -14 237 41 137 176 206 323 165z"/>
<path d="M550 1135 l0 -385 233 2 232 3 0 55 0 55 -167 3 -168 2 0 325 0 325
-65 0 -65 0 0 -385z"/>
<path d="M1286 1148 c-77 -205 -141 -379 -144 -385 -3 -10 14 -13 65 -13 l70
0 38 100 38 101 150 -3 150 -3 35 -97 35 -98 69 0 c65 0 69 1 63 20 -4 11 -66
183 -139 383 l-132 362 -80 3 -80 3 -138 -373z m278 40 l43 -118 -103 0 c-57
0 -104 2 -104 5 0 3 74 205 96 259 9 22 1 38 68 -146z"/>
<path d="M2000 1135 l0 -385 173 0 c211 0 259 11 310 70 62 73 73 163 31 248
-14 29 -40 62 -57 74 -18 12 -34 23 -35 24 -2 1 8 23 23 49 68 114 7 262 -121
294 -23 6 -106 11 -183 11 l-141 0 0 -385z m274 266 c68 -14 94 -118 42 -169
-23 -24 -36 -27 -106 -30 l-80 -4 0 106 0 106 58 -1 c31 -1 70 -4 86 -8z m80
-322 c60 -28 73 -142 21 -186 -24 -21 -36 -23 -136 -23 l-109 0 0 110 0 110
100 0 c54 0 110 -5 124 -11z"/>
<path d="M2950 1465 l0 -55 105 0 105 0 0 -330 0 -330 65 0 65 0 2 328 3 327
103 3 102 3 0 54 0 55 -275 0 -275 0 0 -55z"/>
<path d="M4900 1125 l0 -386 63 3 62 3 5 262 5 262 105 -180 105 -180 54 3 53
3 100 170 c55 94 104 174 109 180 5 5 9 -94 9 -258 l0 -267 65 0 65 0 0 385 0
385 -74 0 -74 0 -124 -210 c-67 -115 -127 -208 -132 -207 -5 2 -63 95 -130
207 l-121 205 -73 3 -72 3 0 -386z"/>
<path d="M6117 1503 c-11 -18 -277 -740 -277 -752 0 -8 19 -11 66 -9 l66 3 38
100 37 100 149 0 149 0 36 -100 36 -100 67 -3 c45 -2 66 1 66 9 0 6 -61 179
-137 385 l-136 374 -78 0 c-43 0 -80 -3 -82 -7z m135 -305 c26 -72 46 -133 44
-135 -2 -2 -48 -2 -104 -1 l-100 3 51 137 c28 75 53 135 56 132 3 -2 27 -64
53 -136z"/>
<path d="M6690 1126 l0 -386 65 0 65 0 0 135 0 135 60 0 60 0 90 -135 90 -135
76 0 c42 0 74 4 72 8 -1 5 -43 71 -93 147 -84 130 -88 139 -70 149 11 6 41 32
66 57 67 67 84 145 54 247 -19 62 -54 105 -109 135 -37 20 -58 22 -233 25
l-193 4 0 -386z m367 248 c35 -26 58 -92 48 -141 -4 -22 -20 -50 -40 -70 l-33
-33 -106 0 -106 0 0 136 0 136 104 -4 c87 -2 109 -7 133 -24z"/>
<path d="M7500 1125 l0 -385 65 0 65 0 0 113 1 112 48 52 48 52 119 -165 118
-164 78 0 c43 0 78 2 78 5 0 3 -64 94 -143 203 -79 109 -147 204 -151 210 -5
8 43 70 131 170 77 86 142 163 147 170 5 9 -12 12 -77 12 l-84 0 -148 -167
c-82 -93 -152 -169 -157 -171 -4 -2 -8 73 -8 167 l0 171 -65 0 -65 0 0 -385z"/>
<path d="M8260 1125 l0 -385 255 0 255 0 0 60 0 60 -190 0 -190 0 0 110 0 110
160 0 160 0 0 60 0 60 -160 0 -160 0 0 100 0 100 190 0 190 0 0 55 0 55 -255
0 -255 0 0 -385z"/>
<path d="M8900 1455 l0 -55 105 0 105 0 0 -330 0 -330 65 0 65 0 0 330 0 330
105 0 105 0 0 55 0 55 -275 0 -275 0 0 -55z"/>
</g>
</svg>
